<?xml version="1.0" encoding="utf-8"?>
<!-- Generated by Mocodo 4.3.2 -->
<svg width="437" height="1141" viewBox="0 0 437 1141" xmlns="http://www.w3.org/2000/svg">
<rect x="0" y="0" width="437" height="1141" fill="#f7f7f7" stroke="none" stroke-width="0"/>

<!-- Association INCLUDE -->
<g>
	<path d="M224 152 C182.67 84 182.67 44.67 224 34" fill="none" stroke="#9970ab" stroke-width="2"/>
	<path d="M224 152 C266.67 84 266.67 44.67 224 34" fill="none" stroke="#9970ab" stroke-width="2"/>
	<g>
		<path d="M245 9 a14 14 90 0 1 14 14 V34 h-70 V23 a14 14 90 0 1 14 -14" fill="#c2a5cf" stroke="#c2a5cf" stroke-width="0"/>
		<path d="M259 34 v11 a14 14 90 0 1 -14 14 H203 a14 14 90 0 1 -14 -14 V34 H70" fill="#e7d4e8" stroke="#e7d4e8" stroke-width="0"/>
		<rect x="189" y="9" width="70" height="50" fill="none" rx="14" stroke="#9970ab" stroke-width="2"/>
		<line x1="189" y1="34" x2="259" y2="34" stroke="#9970ab" stroke-width="1"/>
		<text x="196" y="26.75" fill="#000000" font-family="Verdana" font-size="12">INCLUDE</text>
	</g>
	<text x="200" y="76" fill="#1b7837" font-family="Verdana" font-size="12">0,1</text>
	<text x="227" y="76" fill="#1b7837" font-family="Verdana" font-size="12">0,N</text>
</g>

<!-- Association BELONG_TO -->
<g>
	<line x1="224" y1="355" x2="71" y2="355" stroke="#9970ab" stroke-width="2"/>
	<line x1="224" y1="152" x2="71" y2="355" stroke="#9970ab" stroke-width="2"/>
	<g>
		<path d="M102 330 a14 14 90 0 1 14 14 V355 h-90 V344 a14 14 90 0 1 14 -14" fill="#c2a5cf" stroke="#c2a5cf" stroke-width="0"/>
		<path d="M116 355 v11 a14 14 90 0 1 -14 14 H40 a14 14 90 0 1 -14 -14 V355 H90" fill="#e7d4e8" stroke="#e7d4e8" stroke-width="0"/>
		<rect x="26" y="330" width="90" height="50" fill="none" rx="14" stroke="#9970ab" stroke-width="2"/>
		<line x1="26" y1="355" x2="116" y2="355" stroke="#9970ab" stroke-width="1"/>
		<text x="33" y="347.75" fill="#000000" font-family="Verdana" font-size="12">BELONG_TO</text>
	</g>
	<text x="152" y="347" fill="#1b7837" font-family="Verdana" font-size="12">1,1</text>
	<text x="151" y="210.71" fill="#1b7837" font-family="Verdana" font-size="12">0,N</text>
</g>

<!-- Association STOCK_LEVEL -->
<g>
	<line x1="224" y1="549" x2="365" y2="355" stroke="#9970ab" stroke-width="2"/>
	<line x1="224" y1="355" x2="365" y2="355" stroke="#9970ab" stroke-width="2"/>
	<g>
		<path d="M414 313 a14 14 90 0 1 14 14 V338 h-126 V327 a14 14 90 0 1 14 -14" fill="#c2a5cf" stroke="#c2a5cf" stroke-width="0"/>
		<path d="M428 338 v45 a14 14 90 0 1 -14 14 H316 a14 14 90 0 1 -14 -14 V338 H126" fill="#e7d4e8" stroke="#e7d4e8" stroke-width="0"/>
		<rect x="302" y="313" width="126" height="84" fill="none" rx="14" stroke="#9970ab" stroke-width="2"/>
		<line x1="302" y1="338" x2="428" y2="338" stroke="#9970ab" stroke-width="1"/>
		<text x="322" y="330.75" fill="#000000" font-family="Verdana" font-size="12">STOCK_LEVEL</text>
		<text x="309" y="355.8" fill="#000000" font-family="Verdana" font-size="12">quantity</text>
		<text x="309" y="372.8" fill="#000000" font-family="Verdana" font-size="12">reserved_quantity</text>
		<text x="309" y="389.8" fill="#000000" font-family="Verdana" font-size="12">min_threshold</text>
	</g>
	<text x="261" y="516.46" fill="#1b7837" font-family="Verdana" font-size="12">0,N</text>
	<text x="275" y="372" fill="#1b7837" font-family="Verdana" font-size="12">0,N</text>
</g>

<!-- Association ORDER_CONTENT -->
<g>
	<line x1="224" y1="760" x2="71" y2="760" stroke="#9970ab" stroke-width="2"/>
	<line x1="224" y1="355" x2="71" y2="760" stroke="#9970ab" stroke-width="2"/>
	<g>
		<path d="M119 718 a14 14 90 0 1 14 14 V743 h-124 V732 a14 14 90 0 1 14 -14" fill="#c2a5cf" stroke="#c2a5cf" stroke-width="0"/>
		<path d="M133 743 v45 a14 14 90 0 1 -14 14 H23 a14 14 90 0 1 -14 -14 V743 H124" fill="#e7d4e8" stroke="#e7d4e8" stroke-width="0"/>
		<rect x="9" y="718" width="124" height="84" fill="none" rx="14" stroke="#9970ab" stroke-width="2"/>
		<line x1="9" y1="743" x2="133" y2="743" stroke="#9970ab" stroke-width="1"/>
		<text x="16" y="735.75" fill="#000000" font-family="Verdana" font-size="12">ORDER_CONTENT</text>
		<text x="16" y="760.8" fill="#000000" font-family="Verdana" font-size="12">quantity</text>
		<text x="16" y="777.8" fill="#000000" font-family="Verdana" font-size="12">unit_price</text>
		<text x="16" y="794.8" fill="#000000" font-family="Verdana" font-size="12">total_price</text>
	</g>
	<text x="138" y="777" fill="#1b7837" font-family="Verdana" font-size="12">1,N</text>
	<text x="184.49" y="482" fill="#1b7837" font-family="Verdana" font-size="12">0,N</text>
</g>

<!-- Association APPLY -->
<g>
	<line x1="224" y1="760" x2="365" y2="760" stroke="#9970ab" stroke-width="2"/>
	<line x1="224" y1="1022" x2="365" y2="760" stroke="#9970ab" stroke-width="2"/>
	<g>
		<path d="M377 735 a14 14 90 0 1 14 14 V760 h-52 V749 a14 14 90 0 1 14 -14" fill="#c2a5cf" stroke="#c2a5cf" stroke-width="0"/>
		<path d="M391 760 v11 a14 14 90 0 1 -14 14 H353 a14 14 90 0 1 -14 -14 V760 H52" fill="#e7d4e8" stroke="#e7d4e8" stroke-width="0"/>
		<rect x="339" y="735" width="52" height="50" fill="none" rx="14" stroke="#9970ab" stroke-width="2"/>
		<line x1="339" y1="760" x2="391" y2="760" stroke="#9970ab" stroke-width="1"/>
		<text x="346" y="752.75" fill="#000000" font-family="Verdana" font-size="12">APPLY</text>
	</g>
	<text x="288" y="777" fill="#1b7837" font-family="Verdana" font-size="12">0,1</text>
	<text x="282" y="936.32" fill="#1b7837" font-family="Verdana" font-size="12">0,N</text>
</g>

<!-- Entity CATEGORIES -->
<g>
	<g>
		<rect x="178" y="84" width="92" height="25" fill="#a6dba0" stroke="none" stroke-width="0" opacity="1"/>
		<rect x="178" y="109" width="92" height="111" fill="#d9f0d3" stroke="none" stroke-width="0" opacity="1"/>
		<rect x="178" y="84" width="92" height="136" fill="none" stroke="#5aae61" stroke-width="2" opacity="1"/>
		<line x1="178" y1="109" x2="270" y2="109" stroke="#5aae61" stroke-width="1"/>
	</g>
	<text x="184" y="101.75" fill="#000000" font-family="Verdana" font-size="12">CATEGORIES</text>
	<text x="183" y="126.8" fill="#000000" font-family="Verdana" font-size="12">category_id</text>
	<line x1="183" y1="129" x2="255" y2="129" stroke="#000000" stroke-width="1"/>
	<text x="183" y="143.8" fill="#000000" font-family="Verdana" font-size="12">name</text>
	<text x="183" y="160.8" fill="#000000" font-family="Verdana" font-size="12">slug</text>
	<text x="183" y="177.8" fill="#000000" font-family="Verdana" font-size="12">description</text>
	<text x="183" y="194.8" fill="#000000" font-family="Verdana" font-size="12">image</text>
	<text x="183" y="211.8" fill="#000000" font-family="Verdana" font-size="12">is_active</text>
</g>

<!-- Entity PRODUCTS -->
<g>
	<g>
		<rect x="178" y="245" width="92" height="25" fill="#a6dba0" stroke="none" stroke-width="0" opacity="1"/>
		<rect x="178" y="270" width="92" height="195" fill="#d9f0d3" stroke="none" stroke-width="0" opacity="1"/>
		<rect x="178" y="245" width="92" height="220" fill="none" stroke="#5aae61" stroke-width="2" opacity="1"/>
		<line x1="178" y1="270" x2="270" y2="270" stroke="#5aae61" stroke-width="1"/>
	</g>
	<text x="190" y="262.75" fill="#000000" font-family="Verdana" font-size="12">PRODUCTS</text>
	<text x="183" y="287.8" fill="#000000" font-family="Verdana" font-size="12">product_id</text>
	<line x1="183" y1="290" x2="248" y2="290" stroke="#000000" stroke-width="1"/>
	<text x="183" y="304.8" fill="#000000" font-family="Verdana" font-size="12">brand</text>
	<text x="183" y="321.8" fill="#000000" font-family="Verdana" font-size="12">model</text>
	<text x="183" y="338.8" fill="#000000" font-family="Verdana" font-size="12">slug</text>
	<text x="183" y="355.8" fill="#000000" font-family="Verdana" font-size="12">price</text>
	<text x="183" y="372.8" fill="#000000" font-family="Verdana" font-size="12">monthly</text>
	<text x="183" y="389.8" fill="#000000" font-family="Verdana" font-size="12">badge</text>
	<text x="183" y="406.8" fill="#000000" font-family="Verdana" font-size="12">image</text>
	<text x="183" y="423.8" fill="#000000" font-family="Verdana" font-size="12">description</text>
	<text x="183" y="440.8" fill="#000000" font-family="Verdana" font-size="12">specifications</text>
	<text x="183" y="457.8" fill="#000000" font-family="Verdana" font-size="12">is_active</text>
</g>

<!-- Entity STOCKS -->
<g>
	<g>
		<rect x="192" y="490" width="64" height="25" fill="#a6dba0" stroke="none" stroke-width="0" opacity="1"/>
		<rect x="192" y="515" width="64" height="93" fill="#d9f0d3" stroke="none" stroke-width="0" opacity="1"/>
		<rect x="192" y="490" width="64" height="118" fill="none" stroke="#5aae61" stroke-width="2" opacity="1"/>
		<line x1="192" y1="515" x2="256" y2="515" stroke="#5aae61" stroke-width="1"/>
	</g>
	<text x="199" y="507.75" fill="#000000" font-family="Verdana" font-size="12">STOCKS</text>
	<text x="197" y="532.8" fill="#000000" font-family="Verdana" font-size="12">stock_id</text>
	<line x1="197" y1="535" x2="248" y2="535" stroke="#000000" stroke-width="1"/>
	<text x="197" y="549.8" fill="#000000" font-family="Verdana" font-size="12">name</text>
	<text x="197" y="566.8" fill="#000000" font-family="Verdana" font-size="12">type</text>
	<text x="197" y="583.8" fill="#000000" font-family="Verdana" font-size="12">address</text>
	<text x="197" y="600.8" fill="#000000" font-family="Verdana" font-size="12">is_active</text>
</g>

<!-- Entity ORDERS -->
<g>
	<g>
		<rect x="165" y="633" width="118" height="25" fill="#a6dba0" stroke="none" stroke-width="0" opacity="1"/>
		<rect x="165" y="658" width="118" height="229" fill="#d9f0d3" stroke="none" stroke-width="0" opacity="1"/>
		<rect x="165" y="633" width="118" height="254" fill="none" stroke="#5aae61" stroke-width="2" opacity="1"/>
		<line x1="165" y1="658" x2="283" y2="658" stroke="#5aae61" stroke-width="1"/>
	</g>
	<text x="198" y="650.75" fill="#000000" font-family="Verdana" font-size="12">ORDERS</text>
	<text x="170" y="675.8" fill="#000000" font-family="Verdana" font-size="12">order_id</text>
	<line x1="170" y1="678" x2="222" y2="678" stroke="#000000" stroke-width="1"/>
	<text x="170" y="692.8" fill="#000000" font-family="Verdana" font-size="12">user_id</text>
	<text x="170" y="709.8" fill="#000000" font-family="Verdana" font-size="12">order_number</text>
	<text x="170" y="726.8" fill="#000000" font-family="Verdana" font-size="12">status</text>
	<text x="170" y="743.8" fill="#000000" font-family="Verdana" font-size="12">subtotal</text>
	<text x="170" y="760.8" fill="#000000" font-family="Verdana" font-size="12">vat</text>
	<text x="170" y="777.8" fill="#000000" font-family="Verdana" font-size="12">shipping</text>
	<text x="170" y="794.8" fill="#000000" font-family="Verdana" font-size="12">discount</text>
	<text x="170" y="811.8" fill="#000000" font-family="Verdana" font-size="12">total</text>
	<text x="170" y="828.8" fill="#000000" font-family="Verdana" font-size="12">shipping_address</text>
	<text x="170" y="845.8" fill="#000000" font-family="Verdana" font-size="12">billing_address</text>
	<text x="170" y="862.8" fill="#000000" font-family="Verdana" font-size="12">payment_method</text>
	<text x="170" y="879.8" fill="#000000" font-family="Verdana" font-size="12">payment_status</text>
</g>

<!-- Entity PROMO_CODES -->
<g>
	<g>
		<rect x="171" y="912" width="106" height="25" fill="#a6dba0" stroke="none" stroke-width="0" opacity="1"/>
		<rect x="171" y="937" width="106" height="195" fill="#d9f0d3" stroke="none" stroke-width="0" opacity="1"/>
		<rect x="171" y="912" width="106" height="220" fill="none" stroke="#5aae61" stroke-width="2" opacity="1"/>
		<line x1="171" y1="937" x2="277" y2="937" stroke="#5aae61" stroke-width="1"/>
	</g>
	<text x="176" y="929.75" fill="#000000" font-family="Verdana" font-size="12">PROMO_CODES</text>
	<text x="176" y="954.8" fill="#000000" font-family="Verdana" font-size="12">promo_id</text>
	<line x1="176" y1="957" x2="234" y2="957" stroke="#000000" stroke-width="1"/>
	<text x="176" y="971.8" fill="#000000" font-family="Verdana" font-size="12">code</text>
	<text x="176" y="988.8" fill="#000000" font-family="Verdana" font-size="12">type</text>
	<text x="176" y="1005.8" fill="#000000" font-family="Verdana" font-size="12">value</text>
	<text x="176" y="1022.8" fill="#000000" font-family="Verdana" font-size="12">min_purchase</text>
	<text x="176" y="1039.8" fill="#000000" font-family="Verdana" font-size="12">max_discount</text>
	<text x="176" y="1056.8" fill="#000000" font-family="Verdana" font-size="12">usage_limit</text>
	<text x="176" y="1073.8" fill="#000000" font-family="Verdana" font-size="12">used_count</text>
	<text x="176" y="1090.8" fill="#000000" font-family="Verdana" font-size="12">is_active</text>
	<text x="176" y="1107.8" fill="#000000" font-family="Verdana" font-size="12">valid_from</text>
	<text x="176" y="1124.8" fill="#000000" font-family="Verdana" font-size="12">valid_until</text>
</g>
</svg>